ply
format ascii 1.0
comment Created by Blender 2.79 (sub 0) - www.blender.org, source file: ''
element vertex 130
property float x
property float y
property float z
property float nx
property float ny
property float nz
element face 83
property list uchar uint vertex_indices
end_header
-1.190486 -0.333333 0.333333 -0.613936 0.000000 0.789356
-0.333334 -1.000000 1.000000 -0.613936 0.000000 0.789356
-0.333334 -0.333333 1.000000 -0.613936 0.000000 0.789356
-0.333333 -7.182604 0.333333 -0.611724 -0.084809 0.786512
-0.333334 -1.000000 1.000000 -0.611724 -0.084809 0.786512
-1.190486 -1.000000 0.333333 -0.611724 -0.084809 0.786512
-0.333333 1.000000 -0.333333 0.000000 1.000000 0.000000
-0.333333 1.000000 -1.000000 0.000000 1.000000 0.000000
-1.190486 1.000000 -0.333333 0.000000 1.000000 0.000000
-0.333333 1.000000 1.000000 0.000000 1.000000 0.000000
-0.333333 1.000000 0.333333 0.000000 1.000000 0.000000
-1.190486 1.000000 0.333333 0.000000 1.000000 0.000000
1.190486 1.000000 0.333333 -0.000000 1.000000 0.000000
0.333334 1.000000 0.333333 -0.000000 1.000000 0.000000
0.333334 1.000000 1.000000 -0.000000 1.000000 0.000000
1.190486 1.000000 -0.333333 -0.000000 1.000000 0.000000
0.333333 1.000000 -0.333333 0.000000 1.000000 0.000000
0.333333 1.000000 -1.000000 -0.000000 1.000000 0.000000
-0.333333 0.333334 -1.000000 -0.613936 0.000000 -0.789356
-1.190486 1.000000 -0.333333 -0.613936 0.000000 -0.789356
-0.333333 1.000000 -1.000000 -0.613936 0.000000 -0.789356
-1.190486 -0.333333 0.333333 0.186117 -0.000000 0.982528
-5.703251 0.214146 1.188173 0.186117 -0.000000 0.982528
-5.703251 -1.119187 1.188173 0.186117 -0.000000 0.982528
-1.190486 -1.000000 -0.333333 -0.613936 0.000000 -0.789356
-0.333333 -0.333333 -1.000000 -0.613936 0.000000 -0.789356
-0.333333 -1.000000 -1.000000 -0.613936 0.000000 -0.789356
-1.190486 0.333334 -0.333333 -0.613936 0.000000 -0.789356
1.190486 -0.333333 0.333333 -0.186117 -0.000000 0.982528
1.190486 -1.000000 0.333333 -0.186117 -0.000000 0.982528
5.703251 -1.119187 1.188173 -0.186117 -0.000000 0.982528
-1.190486 -1.000000 0.333333 0.186117 -0.000000 0.982528
-0.333333 -1.000000 -1.000000 -0.611724 -0.084809 -0.786512
-0.333333 -7.182604 -0.333333 -0.611724 -0.084809 -0.786512
-1.190486 -1.000000 -0.333333 -0.611724 -0.084809 -0.786512
-0.333333 -7.182604 0.333333 -0.990526 -0.137326 0.000000
-1.190486 -1.000000 -0.333333 -0.990526 -0.137326 0.000000
-0.333333 -7.182604 -0.333333 -0.990526 -0.137326 0.000000
0.333333 -1.000000 -1.000000 0.611724 -0.084809 -0.786512
1.190486 -1.000000 -0.333333 0.611724 -0.084809 -0.786512
0.333333 -7.182604 -0.333333 0.611724 -0.084809 -0.786512
0.333333 -7.182604 -0.333333 -0.000000 -0.107208 -0.994237
-0.333333 -1.000000 -1.000000 -0.000000 -0.107208 -0.994237
0.333333 -1.000000 -1.000000 -0.000000 -0.107208 -0.994237
1.190486 -1.000000 0.333333 0.990526 -0.137326 0.000000
0.333333 -7.182604 -0.333333 0.990526 -0.137326 0.000000
1.190486 -1.000000 -0.333333 0.990526 -0.137326 0.000000
0.333333 -7.182604 -0.333333 0.000000 -1.000000 0.000000
0.333333 -7.182604 0.333333 0.000000 -1.000000 0.000000
-0.333333 -7.182604 0.333333 0.000000 -1.000000 0.000000
-0.333333 -7.182604 -0.333333 0.000000 -1.000000 0.000000
1.190486 -1.000000 0.333333 0.611724 -0.084809 0.786512
0.333333 -1.000000 1.000000 0.611724 -0.084809 0.786512
0.333333 -7.182604 0.333333 0.611724 -0.084809 0.786512
0.333333 -7.182604 0.333333 0.000000 -0.107208 0.994237
-0.333334 -1.000000 1.000000 0.000000 -0.107208 0.994237
-0.333333 -7.182604 0.333333 0.000000 -0.107208 0.994237
0.333333 -0.333333 -1.000000 0.613936 0.000000 -0.789356
1.190486 -1.000000 -0.333333 0.613936 0.000000 -0.789356
0.333333 -1.000000 -1.000000 0.613936 0.000000 -0.789356
1.190486 -0.333333 -0.333333 0.319486 0.000000 -0.947591
5.703251 0.214146 1.188173 0.319486 0.000000 -0.947591
5.703251 -1.119187 1.188173 0.319486 0.000000 -0.947591
0.333333 1.000000 -1.000000 0.613936 -0.000000 -0.789356
1.190486 0.333334 -0.333333 0.613936 -0.000000 -0.789356
0.333333 0.333333 -1.000000 0.613936 -0.000000 -0.789356
1.190486 -0.333333 -0.333333 0.613936 -0.000000 -0.789356
-1.190486 0.333334 0.333333 0.186117 -0.000000 0.982528
-1.190486 1.000000 0.333333 0.186117 -0.000000 0.982528
1.190486 0.333334 -0.333333 0.319486 0.000000 -0.947591
1.190486 1.000000 -0.333333 0.319486 0.000000 -0.947591
0.333333 -0.333334 1.000000 0.613936 0.000000 0.789356
1.190486 -1.000000 0.333333 0.613936 0.000000 0.789356
1.190486 -0.333333 0.333333 0.613936 0.000000 0.789356
-0.333334 -0.333333 1.000000 0.000000 0.000000 1.000000
0.333333 -1.000000 1.000000 0.000000 0.000000 1.000000
0.333333 -0.333334 1.000000 0.000000 0.000000 1.000000
0.333334 1.000000 1.000000 0.613936 0.000000 0.789356
1.190486 0.333334 0.333333 0.613936 0.000000 0.789356
1.190486 1.000000 0.333333 0.613936 0.000000 0.789356
0.333333 0.333333 1.000000 0.613936 0.000000 0.789356
-0.333333 1.000000 1.000000 0.000000 0.000000 1.000000
0.333333 0.333333 1.000000 0.000000 0.000000 1.000000
0.333334 1.000000 1.000000 0.000000 0.000000 1.000000
-0.333333 0.333333 1.000000 0.000000 0.000000 1.000000
-0.333333 1.000000 1.000000 -0.613936 0.000000 0.789356
-1.190486 0.333334 0.333333 -0.613936 0.000000 0.789356
-0.333333 0.333333 1.000000 -0.613936 0.000000 0.789356
0.333333 0.333333 -1.000000 -0.000000 -0.000000 -1.000000
-0.333333 1.000000 -1.000000 -0.000000 -0.000000 -1.000000
0.333333 1.000000 -1.000000 -0.000000 -0.000000 -1.000000
-0.333333 -0.333333 -1.000000 0.000000 -0.000000 -1.000000
-0.333333 0.333334 -1.000000 0.000000 -0.000000 -1.000000
0.333333 -1.000000 -1.000000 -0.000000 -0.000000 -1.000000
0.333333 -0.333333 -1.000000 -0.000000 -0.000000 -1.000000
1.190486 1.000000 0.333333 -0.186117 -0.000000 0.982528
1.190486 0.333334 0.333333 -0.186117 -0.000000 0.982528
5.703251 0.214146 1.188173 -0.186117 -0.000000 0.982528
1.190486 1.000000 -0.333333 0.171558 0.985174 0.000000
1.190486 1.000000 0.333333 0.171558 0.985174 0.000000
5.703251 0.214146 1.188173 0.171558 0.985174 0.000000
-1.190486 -1.000000 -0.333333 0.026402 -0.999651 0.000000
-1.190486 -1.000000 0.333333 0.026402 -0.999651 0.000000
-5.703251 -1.119187 1.188173 0.026402 -0.999651 0.000000
-1.190486 1.000000 -0.333333 -0.319486 0.000000 -0.947591
-1.190486 0.333334 -0.333333 -0.319486 0.000000 -0.947591
-5.703251 0.214146 1.188173 -0.319486 0.000000 -0.947591
-1.190486 -0.333333 -0.333333 -0.319486 0.000000 -0.947591
-1.190486 -1.000000 -0.333333 -0.319486 0.000000 -0.947591
-5.703251 -1.119187 1.188173 -0.319486 0.000000 -0.947591
-1.190486 1.000000 0.333333 -0.171558 0.985174 0.000000
-1.190486 1.000000 -0.333333 -0.171558 0.985174 0.000000
-5.703251 0.214146 1.188173 -0.171558 0.985174 0.000000
1.190486 -1.000000 -0.333333 0.319486 0.000000 -0.947591
1.190486 -1.000000 0.333333 -0.026402 -0.999651 0.000000
1.190486 -1.000000 -0.333333 -0.026402 -0.999651 0.000000
5.703251 -1.119187 1.188173 -0.026402 -0.999651 0.000000
-1.190486 -1.000000 0.333333 -0.613936 0.000000 0.789356
-1.190486 -0.333333 -0.333333 -0.613936 0.000000 -0.789356
-1.190486 -1.000000 0.333333 -0.990526 -0.137326 0.000000
-0.333333 -7.182604 -0.333333 0.000000 -0.107208 -0.994237
0.333333 -7.182604 0.333333 0.990526 -0.137326 0.000000
0.333333 -1.000000 1.000000 -0.000000 -0.107208 0.994237
0.333333 1.000000 -1.000000 0.613936 0.000000 -0.789355
1.190486 1.000000 -0.333333 0.613936 0.000000 -0.789355
1.190486 0.333334 -0.333333 0.613936 0.000000 -0.789355
0.333333 -1.000000 1.000000 0.613936 -0.000000 0.789356
-0.333334 -1.000000 1.000000 0.000000 -0.000000 1.000000
-1.190486 1.000000 0.333333 -0.613936 0.000000 0.789356
-0.333333 -1.000000 -1.000000 0.000000 -0.000000 -1.000000
3 0 1 2
3 3 4 5
3 6 7 8
3 9 10 11
3 6 11 10
3 12 13 14
3 13 9 14
3 15 13 12
3 16 10 13
3 15 17 16
3 17 6 16
3 18 19 20
3 21 22 23
3 24 25 26
3 25 27 18
3 28 29 30
3 31 21 23
3 32 33 34
3 35 36 37
3 38 39 40
3 41 42 43
3 44 45 46
4 47 48 49 50
3 51 52 53
3 54 55 56
3 57 58 59
3 60 61 62
3 63 64 65
3 65 66 57
3 67 68 22
3 69 70 61
3 71 72 73
3 74 75 76
3 77 78 79
3 80 73 78
3 81 82 83
3 84 76 82
3 85 86 87
3 86 2 87
3 88 89 90
3 88 91 92
3 93 91 94
3 95 96 97
3 98 99 100
3 101 102 103
3 28 97 96
3 104 105 106
3 107 108 109
3 110 111 112
3 113 60 62
3 107 106 105
3 114 115 116
3 0 117 1
3 6 8 11
3 13 10 9
3 15 16 13
3 16 6 10
3 17 7 6
3 18 27 19
3 21 67 22
3 24 118 25
3 25 118 27
3 35 119 36
3 41 120 42
3 44 121 45
3 54 122 55
3 57 66 58
3 60 69 61
3 123 124 125
3 65 64 66
3 71 126 72
3 74 127 75
3 77 80 78
3 80 71 73
3 81 84 82
3 84 74 76
3 85 128 86
3 86 0 2
3 88 92 89
3 88 94 91
3 93 129 91
3 28 30 97
3 107 109 106
