# Blender v2.79 (sub 0) OBJ File: ''
# www.blender.org
o Cube.001
v -1.190486 0.333333 0.333333
v -0.333334 1.000000 1.000000
v -0.333334 1.000000 0.333333
v -0.333333 0.333333 7.182604
v -1.190486 0.333333 1.000000
v -0.333333 -0.333333 -1.000000
v -0.333333 -1.000000 -1.000000
v -1.190486 -0.333333 -1.000000
v -0.333333 1.000000 -1.000000
v -0.333333 0.333333 -1.000000
v -1.190486 0.333333 -1.000000
v 1.190486 0.333333 -1.000000
v 0.333334 0.333333 -1.000000
v 0.333334 1.000000 -1.000000
v 1.190486 -0.333333 -1.000000
v 0.333333 -0.333333 -1.000000
v 0.333333 -1.000000 -1.000000
v -0.333333 -1.000000 -0.333334
v -5.703251 1.188173 -0.214146
v -5.703251 1.188173 1.119187
v -1.190486 -0.333333 1.000000
v -0.333333 -1.000000 0.333333
v -0.333333 -1.000000 1.000000
v -1.190486 -0.333333 -0.333334
v 1.190486 0.333333 0.333333
v 1.190486 0.333333 1.000000
v 5.703251 1.188173 1.119187
v -0.333333 -0.333333 7.182604
v 0.333333 -1.000000 1.000000
v 1.190486 -0.333333 1.000000
v 0.333333 -0.333333 7.182604
v 0.333333 0.333333 7.182604
v 0.333333 1.000000 1.000000
v 0.333333 -1.000000 0.333333
v 1.190486 -0.333333 0.333333
v 5.703251 1.188173 -0.214146
v 1.190486 -0.333333 -0.333334
v 0.333333 -1.000000 -0.333333
v -1.190486 0.333333 -0.333334
v 0.333333 1.000000 0.333334
v 1.190486 0.333333 -0.333334
v 0.333333 1.000000 -0.333333
v -0.333333 1.000000 -0.333333
v -1.190486 -0.333333 0.333333
vn -0.6139 0.7894 0.0000
vn -0.6117 0.7865 0.0848
vn 0.0000 0.0000 -1.0000
vn -0.6139 -0.7894 -0.0000
vn 0.1861 0.9825 0.0000
vn -0.1861 0.9825 0.0000
vn -0.6117 -0.7865 0.0848
vn -0.9905 0.0000 0.1373
vn 0.6117 -0.7865 0.0848
vn 0.0000 -0.9942 0.1072
vn 0.9905 0.0000 0.1373
vn 0.0000 0.0000 1.0000
vn 0.6117 0.7865 0.0848
vn 0.0000 0.9942 0.1072
vn 0.6139 -0.7894 0.0000
vn 0.3195 -0.9476 0.0000
vn 0.6139 0.7894 0.0000
vn -0.0000 1.0000 0.0000
vn 0.0000 -1.0000 -0.0000
vn 0.1716 0.0000 -0.9852
vn 0.0264 0.0000 0.9997
vn -0.3195 -0.9476 -0.0000
vn -0.1716 0.0000 -0.9852
vn -0.0264 0.0000 0.9997
s 1
f 1//1 2//1 3//1
f 4//2 2//2 5//2
f 6//3 7//3 8//3
f 9//3 10//3 11//3
f 6//3 11//3 10//3
f 12//3 13//3 14//3
f 13//3 9//3 14//3
f 15//3 13//3 12//3
f 16//3 10//3 13//3
f 15//3 17//3 16//3
f 17//3 6//3 16//3
f 18//4 8//4 7//4
f 1//5 19//5 20//5
f 21//4 22//4 23//4
f 22//4 24//4 18//4
f 25//6 26//6 27//6
f 5//5 1//5 20//5
f 23//7 28//7 21//7
f 4//8 21//8 28//8
f 29//9 30//9 31//9
f 31//10 23//10 29//10
f 26//11 31//11 30//11
f 32//12 28//12 31//12
f 26//13 33//13 32//13
f 32//14 2//14 4//14
f 34//15 30//15 29//15
f 35//16 36//16 27//16
f 17//15 37//15 38//15
f 38//15 35//15 34//15
f 39//5 11//5 19//5
f 37//16 15//16 36//16
f 40//17 26//17 25//17
f 3//18 33//18 40//18
f 14//17 41//17 12//17
f 42//17 25//17 41//17
f 9//18 42//18 14//18
f 43//18 40//18 42//18
f 9//1 39//1 43//1
f 39//1 3//1 43//1
f 38//19 7//19 17//19
f 38//19 22//19 18//19
f 29//19 22//19 34//19
f 12//6 41//6 36//6
f 15//20 12//20 36//20
f 21//21 5//21 20//21
f 25//6 36//6 41//6
f 8//22 24//22 19//22
f 44//22 21//22 20//22
f 11//23 8//23 19//23
f 30//16 35//16 27//16
f 44//22 19//22 24//22
f 26//24 30//24 27//24
f 1//1 5//1 2//1
f 6//3 8//3 11//3
f 13//3 10//3 9//3
f 15//3 16//3 13//3
f 16//3 6//3 10//3
f 17//3 7//3 6//3
f 18//4 24//4 8//4
f 1//5 39//5 19//5
f 21//4 44//4 22//4
f 22//4 44//4 24//4
f 4//8 5//8 21//8
f 31//10 28//10 23//10
f 26//11 32//11 31//11
f 32//14 33//14 2//14
f 34//15 35//15 30//15
f 35//16 37//16 36//16
f 17//15 15//15 37//15
f 38//15 37//15 35//15
f 40//17 33//17 26//17
f 3//18 2//18 33//18
f 14//17 42//17 41//17
f 42//17 40//17 25//17
f 9//18 43//18 42//18
f 43//18 3//18 40//18
f 9//1 11//1 39//1
f 39//1 1//1 3//1
f 38//19 18//19 7//19
f 38//19 34//19 22//19
f 29//19 23//19 22//19
f 25//6 27//6 36//6
f 44//22 20//22 19//22
f 32//12 4//12 28//12
